<svg xmlns="http://www.w3.org/2000/svg" width="152" height="76" viewBox="0 0 152 76">
    <g fill="#FFF" fill-rule="evenodd">
        <path d="M14.89 26.652c-.108.063-.176.179-.176.304v5.482l-4.075 2.36.008-11.366L34.857 9.48l5.066 2.767-25.032 14.405zm5.345 3.397v5.573l-4.817 2.65V32.84l4.817-2.79zm4.433 7.67l-3.73-2.043v-5.655l8.695 4.798-4.965 2.9zm5.358 2.933l-4.64-2.54 4.613-2.695.027 5.235zm-9.488-4.396l3.425 1.875-8.545 4.99v-4.05l5.12-2.815zm-5.356 13.361c-.108.063-.175.179-.175.304L15 72.036l-4.39-2.387.023-27.947 4.081-2.245v4.277c0 .124.068.24.178.302.054.032.113.046.174.046.062 0 .123-.015.178-.048l9.436-5.51 4.983 2.727-14.481 8.366zm-4.577 25.416l.003-4.586 4.023 2.191-4.026 2.395zm4.11-36.374l-4.082 2.244.005-5.295 4.076-2.36v5.411zm-9.236 5.079c-.112.06-.182.177-.182.305V67.13L.703 69.742V18.324l4.595 2.542v.012l.004 17.212c0 .124.068.24.177.303.11.062.243.061.352 0l4.104-2.377-.004 5.273-4.452 2.449zm4.428 25.528L6 67.137V44.25l3.929-2.16-.023 27.177zm-.005 5.803l-8.825-4.734L5.64 67.74l4.265 2.323-.004 5.006zM30.458.953V6.58L5.843 20.368l-4.776-2.643L30.458.953zM6.564 20.766L30.736 7.227l3.403 1.858-23.846 13.744-3.729-2.063zm3.372 14.44l-3.93 2.276L6 21.255l3.944 2.181-.01 11.77zm24.913-26.53L31.16 6.66V.942l8.773 4.803-5.084 2.93zm5.44 2.971L35.57 9.07l4.727-2.725-.006 5.303zM41 5.734c-.001-.126-.071-.243-.183-.303L30.977.043c-.106-.058-.237-.057-.343.003L.194 17.415c-.078.052-.196.179-.194.362v.04l.001 52.508c.002.175.153.3.21.34l9.867 5.293c.054.029.145.04.174.042.068.003.125-.016.182-.05l5.089-3.032c.115-.084.18-.217.18-.33v-.017l.007-22.45 14.843-8.575c.11-.063.177-.18.175-.306l-.002-.013c0-.007.005-.014.005-.02L30.7 34.91c-.001-.019-.01-.036-.012-.053.003-.018.007-.033.007-.05-.002-.127-.071-.242-.182-.302l-9.744-5.377c-.107-.06-.24-.059-.346.003l-5.005 2.9v-4.874l25.397-14.616c.108-.062.174-.177.175-.3h.001L41 5.738v-.004z"/>
        <g>
            <path d="M2.462 13L0 13 0 0 8 0 8 2.476 2.462 2.476 2.462 5.262 7.075 5.262 7.075 7.738 2.462 7.738zM12.5 2.476v3.715H15c.612 0 1.13-.175 1.554-.524.422-.348.634-.793.634-1.334 0-.593-.204-1.051-.615-1.373-.41-.322-.934-.484-1.573-.484h-2.498zM20 13h-3.046l-2.95-4.332H12.5V13H10V0h4.687c1.653 0 2.9.394 3.742 1.179.838.788 1.258 1.839 1.258 3.154 0 .942-.266 1.797-.8 2.565-.535.767-1.27 1.292-2.208 1.576L20 13zM25.726 8.048h3.728L27.52 3.406l-1.794 4.642zM31.516 13l-1.033-2.477h-5.741L23.778 13H21l5.362-13H28.6L34 13h-2.485zM43.621 0L46 0 46 13 43.621 13 37.379 4.023 37.379 13 35 13 35 0 37.357 0 43.621 9.009zM54.412 6.21L60 13 57.023 13 52.353 7.328 52.353 13 50 13 50 0 52.353 0 52.353 5.392 56.728 0 59.706 0zM13.2 23L15 36 12.45 36 11.455 27.511 8.162 36 6.9 36 3.599 27.487 2.55 36 0 36 1.8 23 4.121 23 7.461 31.455 10.799 23zM20.572 32.428c.806.805 1.783 1.208 2.927 1.208 1.145 0 2.12-.403 2.929-1.208.805-.807 1.208-1.783 1.208-2.927 0-1.145-.403-2.122-1.208-2.929-.808-.805-1.784-1.21-2.929-1.21-1.144 0-2.12.405-2.927 1.21-.806.807-1.21 1.784-1.21 2.929 0 1.144.404 2.12 1.21 2.927M18.9 24.9C20.17 23.633 21.702 23 23.5 23c1.797 0 3.331.633 4.599 1.901C29.366 26.17 30 27.704 30 29.501c0 1.796-.634 3.33-1.902 4.598C26.83 35.366 25.296 36 23.499 36c-1.797 0-3.33-.634-4.599-1.901C17.633 32.83 17 31.297 17 29.5c0-1.797.633-3.331 1.9-4.6M34.5 25.476v3.715H37c.612 0 1.13-.175 1.554-.524.422-.348.634-.793.634-1.334 0-.594-.204-1.051-.615-1.374-.41-.322-.934-.483-1.573-.483h-2.498zM42 36h-3.046l-2.95-4.333H34.5V36H32V23h4.687c1.653 0 2.9.394 3.74 1.179.84.787 1.26 1.839 1.26 3.154 0 .941-.266 1.797-.8 2.565-.535.766-1.27 1.292-2.208 1.576L42 36zM43 23L52 23 52 25.476 48.699 25.476 48.699 36 46.3 36 46.3 25.476 43 25.476zM65.905 28.466c.063.393.095.74.095 1.035 0 1.81-.605 3.346-1.814 4.608-1.21 1.26-2.721 1.891-4.534 1.891-1.84 0-3.41-.634-4.708-1.901C53.648 32.83 53 31.297 53 29.5c0-1.797.648-3.331 1.944-4.6C56.242 23.633 57.812 23 59.652 23c1.27 0 2.404.32 3.4.959.995.642 1.776 1.503 2.343 2.587l-2.437.664c-.34-.566-.797-1.016-1.37-1.348-.574-.333-1.219-.5-1.936-.5-1.172 0-2.171.405-2.997 1.21-.825.807-1.238 1.784-1.238 2.929 0 1.144.413 2.12 1.238 2.927.826.805 1.825 1.208 2.997 1.208.906 0 1.693-.257 2.361-.775.668-.517 1.128-1.193 1.38-2.032h-4.65v-2.363h7.162zM70.726 31.048h3.728l-1.935-4.642-1.793 4.642zM76.516 36l-1.032-2.476h-5.743L68.777 36H66l5.362-13H73.6L79 36h-2.484zM91.905 28.466c.063.393.095.74.095 1.035 0 1.81-.605 3.346-1.815 4.608-1.209 1.26-2.72 1.891-4.534 1.891-1.84 0-3.409-.634-4.706-1.901C79.648 32.83 79 31.297 79 29.5c0-1.797.648-3.331 1.945-4.6C82.242 23.633 83.811 23 85.651 23c1.271 0 2.405.32 3.4.959.996.642 1.777 1.503 2.344 2.587l-2.438.664c-.34-.566-.796-1.016-1.37-1.348-.573-.333-1.217-.5-1.936-.5-1.171 0-2.17.405-2.995 1.21-.826.807-1.238 1.784-1.238 2.929 0 1.144.412 2.12 1.238 2.927.825.805 1.824 1.208 2.995 1.208.906 0 1.693-.257 2.361-.775.668-.517 1.128-1.193 1.38-2.032h-4.649v-2.363h7.162zM102 25.476L96.462 25.476 96.462 28.261 101.077 28.261 101.077 30.738 96.462 30.738 96.462 33.524 102 33.524 102 36 94 36 94 23 102 23z" transform="translate(50 30)"/>
        </g>
    </g>
</svg>
